<svg width="464" height="36" viewBox="0 0 464 36" fill="none" xmlns="http://www.w3.org/2000/svg">
<path d="M432 31.5V0H441V18H450V13.5H454.5V9H463.5V13.5H459V18H454.5V22.5H459V27H463.5V31.5H454.5V27H450V22.5H441V31.5H432Z" fill="#FF9705"/>
<path d="M400.5 31.5V27H396V13.5H400.5V9H423V13.5H427.5V27H423V31.5H400.5ZM405 27H418.5V13.5H405V27Z" fill="#FF9705"/>
<path d="M364.5 31.5V27H360V13.5H364.5V9H387V13.5H391.5V27H387V31.5H364.5ZM369 27H382.5V13.5H369V27Z" fill="#FF9705"/>
<path d="M328.5 31.5V27H337.5V4.5H333V0H346.5V27H355.5V31.5H328.5Z" fill="#FF9705"/>
<path d="M256.5 31.5V27H252V9H261V27H274.5V9H283.5V31.5H256.5Z" fill="#FF9705"/>
<path d="M220.5 31.5V27H216V13.5H220.5V9H243V13.5H247.5V27H243V31.5H220.5ZM225 27H238.5V13.5H225V27Z" fill="#FF9705"/>
<path d="M184.5 36V31.5H202.5V27H184.5V22.5H180V9H189V22.5H202.5V9H211.5V31.5H207V36H184.5Z" fill="#FF9705"/>
<path d="M112.5 31.5V27H108V13.5H112.5V9H135V13.5H139.5V22.5H117V27H135V31.5H112.5ZM117 18H130.5V13.5H117V18Z" fill="#FF9705"/>
<path d="M76.5 31.5V27H72V13.5H76.5V9H94.5V0H103.5V31.5H76.5ZM81 27H94.5V13.5H81V27Z" fill="#FF9705"/>
<path d="M40.5 31.5V27H36V22.5H40.5V18H58.5V13.5H40.5V9H63V13.5H67.5V31.5H40.5ZM45 27H58.5V22.5H45V27Z" fill="#FF9705"/>
<path d="M0 31.5V0H9V4.5H13.5V9H18V4.5H22.5V0H31.5V31.5H22.5V13.5H18V22.5H13.5V13.5H9V31.5H0Z" fill="#FF9705"/>
</svg>
